<?xml version="1.0" encoding="UTF-8" standalone="no"?>
<svg
   xmlns:dc="http://purl.org/dc/elements/1.1/"
   xmlns:cc="http://creativecommons.org/ns#"
   xmlns:rdf="http://www.w3.org/1999/02/22-rdf-syntax-ns#"
   xmlns:svg="http://www.w3.org/2000/svg"
   xmlns="http://www.w3.org/2000/svg"
   xmlns:xlink="http://www.w3.org/1999/xlink"
   xmlns:sodipodi="http://sodipodi.sourceforge.net/DTD/sodipodi-0.dtd"
   xmlns:inkscape="http://www.inkscape.org/namespaces/inkscape"
   width="128pt"
   height="128pt"
   viewBox="0 0 128 128"
   version="1.1"
   id="svg3037"
   inkscape:version="0.48.1 r9760"
   sodipodi:docname="websecurify04.svg"
   inkscape:export-filename="/Users/pdp/Desktop/websecurify.png"
   inkscape:export-xdpi="288"
   inkscape:export-ydpi="288">
  <defs
     id="defs3047">
    <linearGradient
       id="linearGradient3779">
      <stop
         style="stop-color:#000000;stop-opacity:0;"
         offset="0"
         id="stop3781" />
      <stop
         style="stop-color:#f9f9f9;stop-opacity:1"
         offset="1"
         id="stop3783" />
    </linearGradient>
    <linearGradient
       inkscape:collect="always"
       xlink:href="#linearGradient3779"
       id="linearGradient3785"
       x1="73.220337"
       y1="20.20339"
       x2="72.881355"
       y2="88.677963"
       gradientUnits="userSpaceOnUse" />
    <linearGradient
       inkscape:collect="always"
       xlink:href="#linearGradient3779"
       id="linearGradient2992"
       gradientUnits="userSpaceOnUse"
       x1="73.220337"
       y1="-9.7320938"
       x2="73.220337"
       y2="114.49198" />
  </defs>
  <sodipodi:namedview
     pagecolor="transparent"
     bordercolor="transparent"
     borderopacity="1"
     objecttolerance="10"
     gridtolerance="10"
     inkscape:pageopacity="0"
     inkscape:pageshadow="2"
     inkscape:window-width="1234"
     inkscape:window-height="758"
     id="namedview3045"
     showgrid="false"
     inkscape:snap-bbox="true"
     inkscape:object-paths="false"
     inkscape:snap-nodes="true"
     inkscape:zoom="1.55"
     inkscape:cx="26.215662"
     inkscape:cy="67.244452"
     inkscape:window-x="79"
     inkscape:window-y="9"
     inkscape:window-maximized="0"
     inkscape:current-layer="svg3037" />
  <rect
     ry="10"
     rx="10"
     y="0"
     x="0"
     height="128"
     width="128"
     id="rect3759"
     style="fill:#2d2d38;fill-opacity:1;stroke:none" />
  <path
     d="m 6.61,45.36 c 3.2,-0.01 6.39,0 9.59,0.01 2.77,9.21 5.53,18.43 8.31,27.63 2.77,-9.21 5.5,-18.44 8.29,-27.64 3.19,0 6.38,0 9.56,0 2.8,9.2 5.55,18.42 8.32,27.63 2.79,-9.2 5.51,-18.42 8.28,-27.63 3.19,0 6.39,-0.01 9.59,0 C 64.22,59.91 59.83,74.45 55.47,89 52.26,89.01 49.06,89.01 45.85,88.98 43.11,79.79 40.38,70.6 37.6,61.42 34.8,70.6 32.06,79.79 29.3,88.99 26.1,89 22.9,89.01 19.71,89 15.32,74.46 10.95,59.91 6.61,45.36 z"
     id="path3041"
     inkscape:connector-curvature="0"
     style="fill:#ffffff" />
  <path
     d="m 72.6,54.97 c -0.6,-4.75 3.03,-9.61 7.99,-9.54 10.02,-0.17 20.04,-0.01 30.07,-0.08 2.84,-0.09 5.98,0.48 7.89,2.8 2.55,2.78 1.99,6.83 2.06,10.3 -2.84,0 -5.69,0.01 -8.53,0 -0.49,-1.77 -1.12,-4.28 -3.44,-4.24 -7.99,-0.21 -16.01,-0.19 -24,-0.01 -4.9,0.28 -4.18,9.43 0.93,8.59 9,-0.13 18.02,-0.09 27.03,0.1 3.92,-0.03 7.55,3.16 7.85,7.1 0.25,4.03 0.29,8.1 -0.03,12.13 -0.45,3.78 -3.94,6.78 -7.72,6.81 -10.03,0.18 -20.06,0.01 -30.09,0.08 -2.94,0.12 -6.21,-0.51 -8.11,-2.96 -2.39,-2.81 -1.84,-6.73 -1.91,-10.13 2.85,-0.02 5.71,-0.03 8.56,0.01 0.49,1.78 1.04,4.3 3.42,4.22 8.01,0.2 16.05,0.2 24.06,0 4.38,-0.23 4.33,-8.37 -0.08,-8.48 C 99.915285,70.853663 81.172545,73.227983 75.76,69.81 71.22,66.27 72.9,59.92 72.6,54.97 z"
     id="path3043"
     inkscape:connector-curvature="0"
     style="fill:#ffffff"
     sodipodi:nodetypes="cccccccccccccccccccccc" />
  <path
     style="fill:url(#linearGradient2992);fill-opacity:1;stroke:none"
     d="m 10,0 108,0 c 5.54,0 10,4.46 10,10 l 0,44 c 0,5.54 -4.66674,8.500692 -10,10 C 82.824067,73.888801 46.539422,70.473061 10,64 4.5449372,63.03362 0,59.54 0,54 L 0,10 C 0,4.46 4.46,0 10,0 z"
     id="rect3809"
     inkscape:connector-curvature="0"
     sodipodi:nodetypes="sssssssss" />
  <metadata
     id="metadata3841">
    <rdf:RDF>
      <cc:Work
         rdf:about="">
        <dc:title />
        <dc:format>image/svg+xml</dc:format>
        <dc:type
           rdf:resource="http://purl.org/dc/dcmitype/StillImage" />
      </cc:Work>
    </rdf:RDF>
  </metadata>
</svg>
