<?xml version="1.0" encoding="UTF-8" standalone="no"?>
<svg
   xmlns:dc="http://purl.org/dc/elements/1.1/"
   xmlns:cc="http://creativecommons.org/ns#"
   xmlns:rdf="http://www.w3.org/1999/02/22-rdf-syntax-ns#"
   xmlns:svg="http://www.w3.org/2000/svg"
   xmlns="http://www.w3.org/2000/svg"
   xmlns:sodipodi="http://sodipodi.sourceforge.net/DTD/sodipodi-0.dtd"
   xmlns:inkscape="http://www.inkscape.org/namespaces/inkscape"
   width="128pt"
   height="128pt"
   viewBox="0 0 128 128"
   version="1.1"
   id="svg3037"
   inkscape:version="0.48.0 r9654"
   sodipodi:docname="icon.svg">
  <metadata
     id="metadata3049">
    <rdf:RDF>
      <cc:Work
         rdf:about="">
        <dc:format>image/svg+xml</dc:format>
        <dc:type
           rdf:resource="http://purl.org/dc/dcmitype/StillImage" />
      </cc:Work>
    </rdf:RDF>
  </metadata>
  <defs
     id="defs3047" />
  <sodipodi:namedview
     pagecolor="#ffffff"
     bordercolor="#666666"
     borderopacity="1"
     objecttolerance="10"
     gridtolerance="10"
     guidetolerance="10"
     inkscape:pageopacity="0"
     inkscape:pageshadow="2"
     inkscape:window-width="907"
     inkscape:window-height="679"
     id="namedview3045"
     showgrid="false"
     inkscape:snap-bbox="true"
     inkscape:object-paths="false"
     inkscape:snap-nodes="true"
     inkscape:zoom="3.7869877"
     inkscape:cx="81.675533"
     inkscape:cy="113.58322"
     inkscape:window-x="0"
     inkscape:window-y="0"
     inkscape:window-maximized="0"
     inkscape:current-layer="svg3037" />
  <path
     fill="#e86e48"
     d=" M 0.00 0.00 L 128.00 0.00 L 128.00 128.00 L 0.00 128.00 L 0.00 0.00 Z"
     id="path3039" />
  <path
     fill="#ffffff"
     d=" M 5.01 45.36 C 8.21 45.35 11.40 45.36 14.60 45.37 C 17.37 54.58 20.13 63.80 22.91 73.00 C 25.68 63.79 28.41 54.56 31.20 45.36 C 34.39 45.36 37.58 45.36 40.76 45.36 C 43.56 54.56 46.31 63.78 49.08 72.99 C 51.87 63.79 54.59 54.57 57.36 45.36 C 60.55 45.36 63.75 45.35 66.95 45.36 C 62.62 59.91 58.23 74.45 53.87 89.00 C 50.66 89.01 47.46 89.01 44.25 88.98 C 41.51 79.79 38.78 70.60 36.00 61.42 C 33.20 70.60 30.46 79.79 27.70 88.99 C 24.50 89.00 21.30 89.01 18.11 89.00 C 13.72 74.46 9.35 59.91 5.01 45.36 Z"
     id="path3041" />
  <path
     d="m 71,54.97 c -0.6,-4.75 3.03,-9.61 7.99,-9.54 10.02,-0.17 20.04,-0.01 30.07,-0.08 2.84,-0.09 5.98,0.48 7.89,2.8 2.55,2.78 1.99,6.83 2.06,10.3 -2.84,0 -5.69,0.01 -8.53,0 -0.49,-1.77 -1.12,-4.28 -3.44,-4.24 -7.99,-0.21 -16.01,-0.19 -24,-0.01 -4.9,0.28 -4.18,9.43 0.93,8.59 9,-0.13 18.02,-0.09 27.03,0.1 3.92,-0.03 7.55,3.16 7.85,7.1 0.25,4.03 0.29,8.1 -0.03,12.13 -0.45,3.78 -3.94,6.78 -7.72,6.81 -10.03,0.18 -20.06,0.01 -30.09,0.08 -2.94,0.12 -6.21,-0.51 -8.11,-2.96 -2.39,-2.81 -1.84,-6.73 -1.91,-10.13 2.85,-0.02 5.71,-0.03 8.56,0.01 0.49,1.78 1.04,4.3 3.42,4.22 8.01,0.2 16.05,0.2 24.06,0 4.38,-0.23 4.33,-8.37 -0.08,-8.48 C 98.315285,70.853663 79.572545,73.227983 74.16,69.81 69.62,66.27 71.3,59.92 71,54.97 z"
     id="path3043"
     inkscape:connector-curvature="0"
     style="fill:#ffffff"
     sodipodi:nodetypes="cccccccccccccccccccccc" />
</svg>
